# xmcd
#
# Track frame offsets:
#	150
#	17451
#	30984
#	48559
#	71964
#	88059
#	109551
#	131463
#	153614
#	174892
#	196626
#	222271
#	244138
#	258543
#	287359
#	305843
#	340241
#
# Disc length: 4736 seconds
#
# Revision: 2
# Processed by: cddbd v1.5.1PL2 Copyright (c) Steve Scherf et al.
# Submitted via: audiograbber 1.83.01
#
DISCID=ea127e11
DTITLE=Gemischtes - More songs out of Africa
DYEAR=1900
DGENRE=Südafrika
TTITLE0=Mango Groove - Eat a mango
TTITLE1=Makeba, Miriam - Pata pata
TTITLE2=Ladysmith Black Mambazo - Homeless
TTITLE3=Lamonte - Bambezela
TTITLE4=Singana, Margaret - Hamba bhekile
TTITLE5=West Nkosi - Staff nurse
TTITLE6=Chaka Chaka, Yvonne - Umqombothi
TTITLE7=Mabuse, Sipho "Hotstix" - Burn out
TTITLE8=Umzansi Zulu Dancers - Ingculaza
TTITLE9=Ladysmith Black Mambazo - Inkanyezi nezazi
TTITLE10=Khanyile, Jabu - Zulu man in London
TTITLE11=Kekane, Steve - The bushman
TTITLE12=Frew, Sean - The rhino theme
TTITLE13=Kanda Bongo Man - Balobi
TTITLE14=Lebo M - Deeper meaning
TTITLE15=Phuzekemizi - Ngo 49 (Remix)
TTITLE16=anonymous - Big 5 medley (Elephant/Buffalo/Rhino/Leopard/Lion)
EXTD=
EXTT0=
EXTT1=
EXTT2=
EXTT3=
EXTT4=
EXTT5=
EXTT6=
EXTT7=
EXTT8=
EXTT9=
EXTT10=
EXTT11=
EXTT12=
EXTT13=
EXTT14=
EXTT15=
EXTT16=
PLAYORDER=
